<svg xmlns="http://www.w3.org/2000/svg" width="60.48" height="36.624" viewBox="0 0 60.48 36.624">
  <path id="logo_fryderyk" d="M6.72-44.6A15.464,15.464,0,0,0,7.9-38.43a13.255,13.255,0,0,0,3.318,4.662,14.454,14.454,0,0,0,5.124,2.94,20.492,20.492,0,0,0,6.594,1.008,20.493,20.493,0,0,0,6.594-1.008,14.454,14.454,0,0,0,5.124-2.94,13.255,13.255,0,0,0,3.318-4.662A15.464,15.464,0,0,0,39.144-44.6,13.974,13.974,0,0,0,37-52.206a15.645,15.645,0,0,0-5.8-5.418,16.839,16.839,0,0,0-8.274-2.016,16.839,16.839,0,0,0-8.274,2.016,15.645,15.645,0,0,0-5.8,5.418A13.974,13.974,0,0,0,6.72-44.6Zm6.8.84a10,10,0,0,1,1.218-4.956,8.722,8.722,0,0,1,3.36-3.4,9.6,9.6,0,0,1,4.83-1.218A9.535,9.535,0,0,1,27.8-52.122a8.809,8.809,0,0,1,3.318,3.4,10,10,0,0,1,1.218,4.956,9.054,9.054,0,0,1-1.3,4.872,9.2,9.2,0,0,1-3.444,3.276,9.53,9.53,0,0,1-4.662,1.176,9.53,9.53,0,0,1-4.662-1.176,9.2,9.2,0,0,1-3.444-3.276A9.054,9.054,0,0,1,13.524-43.764Zm-8.9,27.8A15.338,15.338,0,0,0,6.006-9.492,17.3,17.3,0,0,0,9.87-4.116a17.732,17.732,0,0,0,5.8,3.654A19.723,19.723,0,0,0,22.932.84,19.723,19.723,0,0,0,30.2-.462a17.732,17.732,0,0,0,5.8-3.654,17.3,17.3,0,0,0,3.864-5.376,15.338,15.338,0,0,0,1.386-6.468,16.8,16.8,0,0,0-1.47-7.182,15.142,15.142,0,0,0-4.032-5.292,17.69,17.69,0,0,0-5.88-3.234,22.024,22.024,0,0,0-6.93-1.092A22.024,22.024,0,0,0,16-31.668a17.69,17.69,0,0,0-5.88,3.234A15.142,15.142,0,0,0,6.09-23.142,16.8,16.8,0,0,0,4.62-15.96Zm6.8-.84a10.455,10.455,0,0,1,1.638-5.754,12.188,12.188,0,0,1,4.284-4.074,11.091,11.091,0,0,1,5.586-1.512,11.091,11.091,0,0,1,5.586,1.512A12.188,12.188,0,0,1,32.8-22.554,10.455,10.455,0,0,1,34.44-16.8,11.011,11.011,0,0,1,32.8-10.668,10.941,10.941,0,0,1,28.518-6.8,12.171,12.171,0,0,1,22.932-5.46,12.171,12.171,0,0,1,17.346-6.8a10.941,10.941,0,0,1-4.284-3.864A11.011,11.011,0,0,1,11.424-16.8Z" transform="translate(0.84 -4.62) rotate(90)" fill="#1c3365"/>
</svg>
