<svg xmlns="http://www.w3.org/2000/svg" width="74.88" height="45.344" viewBox="0 0 74.88 45.344">
  <path id="logo" d="M8.32-55.224A19.145,19.145,0,0,0,9.776-47.58a16.411,16.411,0,0,0,4.108,5.772,17.9,17.9,0,0,0,6.344,3.64,25.371,25.371,0,0,0,8.164,1.248,25.372,25.372,0,0,0,8.164-1.248,17.9,17.9,0,0,0,6.344-3.64,16.412,16.412,0,0,0,4.108-5.772,19.145,19.145,0,0,0,1.456-7.644,17.3,17.3,0,0,0-2.652-9.412,19.37,19.37,0,0,0-7.176-6.708,20.849,20.849,0,0,0-10.244-2.5,20.849,20.849,0,0,0-10.244,2.5,19.37,19.37,0,0,0-7.176,6.708A17.3,17.3,0,0,0,8.32-55.224Zm8.424,1.04a12.382,12.382,0,0,1,1.508-6.136,10.8,10.8,0,0,1,4.16-4.212,11.882,11.882,0,0,1,5.98-1.508,11.8,11.8,0,0,1,6.032,1.508,10.907,10.907,0,0,1,4.108,4.212,12.382,12.382,0,0,1,1.508,6.136,11.21,11.21,0,0,1-1.612,6.032A11.4,11.4,0,0,1,34.164-44.1a11.8,11.8,0,0,1-5.772,1.456A11.8,11.8,0,0,1,22.62-44.1a11.4,11.4,0,0,1-4.264-4.056A11.21,11.21,0,0,1,16.744-54.184ZM5.72-19.76a18.99,18.99,0,0,0,1.716,8.008A21.413,21.413,0,0,0,12.22-5.1,21.954,21.954,0,0,0,19.4-.572a24.419,24.419,0,0,0,9,1.612,24.419,24.419,0,0,0,9-1.612A21.954,21.954,0,0,0,44.564-5.1a21.413,21.413,0,0,0,4.784-6.656,18.99,18.99,0,0,0,1.716-8.008,20.794,20.794,0,0,0-1.82-8.892A18.747,18.747,0,0,0,44.252-35.2a21.9,21.9,0,0,0-7.28-4,27.268,27.268,0,0,0-8.58-1.352,27.268,27.268,0,0,0-8.58,1.352,21.9,21.9,0,0,0-7.28,4A18.747,18.747,0,0,0,7.54-28.652,20.794,20.794,0,0,0,5.72-19.76Zm8.424-1.04a12.945,12.945,0,0,1,2.028-7.124,15.09,15.09,0,0,1,5.3-5.044,13.731,13.731,0,0,1,6.916-1.872,13.731,13.731,0,0,1,6.916,1.872,15.09,15.09,0,0,1,5.3,5.044A12.945,12.945,0,0,1,42.64-20.8a13.633,13.633,0,0,1-2.028,7.592,13.546,13.546,0,0,1-5.3,4.784A15.069,15.069,0,0,1,28.392-6.76a15.069,15.069,0,0,1-6.916-1.664,13.546,13.546,0,0,1-5.3-4.784A13.633,13.633,0,0,1,14.144-20.8Z" transform="translate(1.04 -5.72) rotate(90)" fill="#fff"/>
</svg>
