<svg xmlns="http://www.w3.org/2000/svg" width="159" height="159" viewBox="0 0 159 159">
  <path id="Differenzmenge_1" data-name="Differenzmenge 1" d="M79.5,1017a79.128,79.128,0,0,1-44.449-13.577,79.732,79.732,0,0,1-28.8-34.977,79.4,79.4,0,0,1,7.33-75.394,79.732,79.732,0,0,1,34.978-28.8,79.4,79.4,0,0,1,75.394,7.33,79.734,79.734,0,0,1,28.8,34.978,79.394,79.394,0,0,1-7.33,75.394,79.733,79.733,0,0,1-34.978,28.8A79,79,0,0,1,79.5,1017ZM38.407,957.819a4.919,4.919,0,0,0-3.907,2.058,7.738,7.738,0,0,0-1.66,4.983c0,6.089,1.515,11.054,4.514,14.755a14.414,14.414,0,0,0,11.691,5.578h.224A22.784,22.784,0,0,0,59.8,982.6a26.428,26.428,0,0,0,8.5-7.1A34.107,34.107,0,0,0,73.868,964.8c.21-.643.4-1.319.573-2.008L81.3,942.7l24.985,41.441H96.173v.8h31.88v-.8H117.56L85.946,931.406l10.493-26.435a47.851,47.851,0,0,1,2.325-4.318,34.451,34.451,0,0,1,2.99-4.25,16.584,16.584,0,0,1,3.451-3.188,6.741,6.741,0,0,1,3.854-1.263,6.576,6.576,0,0,1,5.278,2.325,13.423,13.423,0,0,1,2.556,6.973,6.342,6.342,0,0,0-1.991-2.458,4.615,4.615,0,0,0-2.789-.994,4.956,4.956,0,0,0-3.928,2.061,7.712,7.712,0,0,0-1.662,4.981,7.8,7.8,0,0,0,1.671,4.983,4.757,4.757,0,0,0,7.835,0,7.705,7.705,0,0,0,1.661-4.981c0-4.144-.758-7.5-2.259-9.964a7.114,7.114,0,0,0-6.374-3.718,8.312,8.312,0,0,0-5.247,2.191,29.459,29.459,0,0,0-4.185,4.581,32.963,32.963,0,0,0-3.72,6.773l-20.453,51c.071-1.229.107-2.549.107-4.035l-.375-38.633V891.955H85.547v-.8H53.667v.8l11.677-.056-.349,55.324-.277,17.632a23.924,23.924,0,0,1-1.2,7.77,19.284,19.284,0,0,1-3.321,6.111,16.3,16.3,0,0,1-4.981,4.112,12.942,12.942,0,0,1-6.09,1.528h-.086c-.21.007-.42.01-.625.01a12.056,12.056,0,0,1-6.349-1.538,14.993,14.993,0,0,1-4.45-4.052,17.819,17.819,0,0,1-2.588-5.114,41.5,41.5,0,0,1-1.263-4.838,5.225,5.225,0,0,0,4.649,3.055,4.875,4.875,0,0,0,3.984-2.058,8.583,8.583,0,0,0,0-9.964,4.87,4.87,0,0,0-3.984-2.058Z" transform="translate(0 -858)" fill="#fff"/>
</svg>
