<svg xmlns="http://www.w3.org/2000/svg" width="31.5" height="31.5" viewBox="0 0 31.5 31.5">
  <path id="xing_material" d="M28.125,2.25H3.375A3.376,3.376,0,0,0,0,5.625v24.75A3.376,3.376,0,0,0,3.375,33.75h24.75A3.376,3.376,0,0,0,31.5,30.375V5.625A3.376,3.376,0,0,0,28.125,2.25ZM9.872,22.514H6.6a.473.473,0,0,1-.422-.724l3.466-6.1c.007,0,.007-.007,0-.014l-2.208-3.8a.448.448,0,0,1,.422-.71H11.13a1.047,1.047,0,0,1,.907.612l2.243,3.888-3.523,6.2A1.034,1.034,0,0,1,9.872,22.514ZM25.32,7.46,18.091,20.166v.014L22.7,28.547a.451.451,0,0,1-.422.71H19a1.008,1.008,0,0,1-.907-.612l-4.641-8.459q.243-.432,7.27-12.818a1.009,1.009,0,0,1,.879-.612h3.3a.449.449,0,0,1,.422.7Z" transform="translate(0 -2.25)" fill="#fff"/>
</svg>
