<svg xmlns="http://www.w3.org/2000/svg" width="33.84" height="20.492" viewBox="0 0 33.84 20.492">
  <path id="icon_mobile_menu" d="M3.76-24.957A8.652,8.652,0,0,0,4.418-21.5a7.417,7.417,0,0,0,1.857,2.608,8.087,8.087,0,0,0,2.867,1.645,11.466,11.466,0,0,0,3.689.564,11.466,11.466,0,0,0,3.689-.564,8.087,8.087,0,0,0,2.867-1.645A7.417,7.417,0,0,0,21.244-21.5a8.652,8.652,0,0,0,.658-3.455,7.819,7.819,0,0,0-1.2-4.253,8.754,8.754,0,0,0-3.243-3.031,9.422,9.422,0,0,0-4.63-1.128A9.422,9.422,0,0,0,8.2-32.242a8.754,8.754,0,0,0-3.243,3.031A7.819,7.819,0,0,0,3.76-24.957Zm3.807.47a5.6,5.6,0,0,1,.681-2.773,4.88,4.88,0,0,1,1.88-1.9,5.37,5.37,0,0,1,2.7-.682,5.335,5.335,0,0,1,2.726.682,4.929,4.929,0,0,1,1.857,1.9,5.6,5.6,0,0,1,.681,2.773,5.066,5.066,0,0,1-.729,2.726,5.15,5.15,0,0,1-1.927,1.833,5.332,5.332,0,0,1-2.608.658,5.332,5.332,0,0,1-2.608-.658A5.15,5.15,0,0,1,8.3-21.761,5.066,5.066,0,0,1,7.567-24.487ZM2.585-8.93a8.582,8.582,0,0,0,.775,3.619A9.677,9.677,0,0,0,5.523-2.3,9.921,9.921,0,0,0,8.766-.259,11.036,11.036,0,0,0,12.831.47,11.036,11.036,0,0,0,16.9-.259,9.921,9.921,0,0,0,20.14-2.3,9.677,9.677,0,0,0,22.3-5.311a8.582,8.582,0,0,0,.775-3.619,9.4,9.4,0,0,0-.823-4.018A8.472,8.472,0,0,0,20-15.91a9.9,9.9,0,0,0-3.29-1.809,12.323,12.323,0,0,0-3.877-.611,12.323,12.323,0,0,0-3.877.611,9.9,9.9,0,0,0-3.29,1.809,8.472,8.472,0,0,0-2.256,2.961A9.4,9.4,0,0,0,2.585-8.93ZM6.392-9.4a5.85,5.85,0,0,1,.917-3.219,6.819,6.819,0,0,1,2.4-2.28,6.205,6.205,0,0,1,3.125-.846,6.205,6.205,0,0,1,3.125.846,6.819,6.819,0,0,1,2.4,2.28A5.85,5.85,0,0,1,19.27-9.4a6.161,6.161,0,0,1-.917,3.431,6.122,6.122,0,0,1-2.4,2.162,6.81,6.81,0,0,1-3.125.752,6.81,6.81,0,0,1-3.125-.752,6.122,6.122,0,0,1-2.4-2.162A6.161,6.161,0,0,1,6.392-9.4Z" transform="translate(0.47 -2.585) rotate(90)" fill="#fff"/>
</svg>
