<svg xmlns="http://www.w3.org/2000/svg" width="61.2" height="37.06" viewBox="0 0 61.2 37.06">
  <path id="logo" d="M6.8-45.135a15.648,15.648,0,0,0,1.19,6.248,13.413,13.413,0,0,0,3.358,4.717A14.626,14.626,0,0,0,16.533-31.2a20.736,20.736,0,0,0,6.672,1.02,20.736,20.736,0,0,0,6.673-1.02,14.626,14.626,0,0,0,5.185-2.975,13.413,13.413,0,0,0,3.357-4.717,15.648,15.648,0,0,0,1.19-6.248,14.14,14.14,0,0,0-2.167-7.692,15.831,15.831,0,0,0-5.865-5.483A17.04,17.04,0,0,0,23.2-60.35a17.04,17.04,0,0,0-8.372,2.04,15.831,15.831,0,0,0-5.865,5.483A14.14,14.14,0,0,0,6.8-45.135Zm6.885.85A10.12,10.12,0,0,1,14.918-49.3a8.826,8.826,0,0,1,3.4-3.443A9.711,9.711,0,0,1,23.2-53.975a9.648,9.648,0,0,1,4.93,1.233A8.914,8.914,0,0,1,31.493-49.3a10.12,10.12,0,0,1,1.233,5.015,9.162,9.162,0,0,1-1.318,4.93,9.314,9.314,0,0,1-3.485,3.315A9.643,9.643,0,0,1,23.2-34.85a9.643,9.643,0,0,1-4.717-1.19A9.314,9.314,0,0,1,15-39.355,9.162,9.162,0,0,1,13.685-44.285ZM4.675-16.15a15.521,15.521,0,0,0,1.4,6.545,17.5,17.5,0,0,0,3.91,5.44,17.943,17.943,0,0,0,5.865,3.7A19.958,19.958,0,0,0,23.2.85,19.958,19.958,0,0,0,30.558-.468a17.943,17.943,0,0,0,5.865-3.7,17.5,17.5,0,0,0,3.91-5.44,15.521,15.521,0,0,0,1.4-6.545,17,17,0,0,0-1.487-7.267,15.322,15.322,0,0,0-4.08-5.355,17.9,17.9,0,0,0-5.95-3.272,22.286,22.286,0,0,0-7.013-1.1,22.286,22.286,0,0,0-7.012,1.1,17.9,17.9,0,0,0-5.95,3.272,15.322,15.322,0,0,0-4.08,5.355A17,17,0,0,0,4.675-16.15ZM11.56-17a10.58,10.58,0,0,1,1.658-5.823,12.333,12.333,0,0,1,4.335-4.122,11.223,11.223,0,0,1,5.652-1.53,11.223,11.223,0,0,1,5.653,1.53,12.333,12.333,0,0,1,4.335,4.122A10.58,10.58,0,0,1,34.85-17a11.142,11.142,0,0,1-1.658,6.2,11.071,11.071,0,0,1-4.335,3.91A12.316,12.316,0,0,1,23.2-5.525a12.316,12.316,0,0,1-5.652-1.36,11.071,11.071,0,0,1-4.335-3.91A11.142,11.142,0,0,1,11.56-17Z" transform="translate(0.85 -4.675) rotate(90)" fill="#fff"/>
</svg>
