<svg xmlns="http://www.w3.org/2000/svg" xmlns:xlink="http://www.w3.org/1999/xlink" width="302" height="94" viewBox="0 0 302 94">
  <defs>
    <clipPath id="clip-Zeichenfläche_1">
      <rect width="302" height="94"/>
    </clipPath>
  </defs>
  <g id="Zeichenfläche_1" data-name="Zeichenfläche – 1" clip-path="url(#clip-Zeichenfläche_1)">
    <rect width="302" height="94" fill="rgba(255,255,255,0)"/>
    <g id="Gruppe_31" data-name="Gruppe 31" transform="translate(7.386 4.138)">
      <g id="Gruppe_32" data-name="Gruppe 32" transform="translate(1.864 0.862)">
        <path id="Pfad_15" data-name="Pfad 15" d="M65.737,16.891,37.909.824a2.424,2.424,0,0,0-2.423,0L1.713,20.323A2.424,2.424,0,0,0,.5,22.423v39a2.421,2.421,0,0,0,1.213,2.1L32.161,81.1a9.078,9.078,0,0,0,9.07,0L68.36,65.439a9.076,9.076,0,0,0,4.535-7.855V24.107a5.339,5.339,0,0,0-2.671-4.625l-4.487-2.591" transform="translate(-0.5 -0.5)" fill="none" stroke="#fff" stroke-miterlimit="10" stroke-width="4"/>
        <path id="Pfad_16" data-name="Pfad 16" d="M15.47,70.418l-.078-2.323V33.6a6.646,6.646,0,0,1,3.252-5.731L49.95,9.552l.836-.472" transform="translate(20.802 12.428)" fill="none" stroke="#fff" stroke-miterlimit="10" stroke-width="4"/>
        <path id="Pfad_17" data-name="Pfad 17" d="M.545,8.92,33.312,27.831A6.667,6.667,0,0,1,36.629,33.6V68.31" transform="translate(-0.436 12.197)" fill="none" stroke="#fff" stroke-miterlimit="10" stroke-width="4"/>
      </g>
    </g>
    <g id="Gruppe_33" data-name="Gruppe 33" transform="translate(-23 -28)">
      <text id="JERZYS" transform="translate(121 87)" fill="#fff" font-size="48" font-family="Poppins-BoldItalic, Poppins" font-weight="700" font-style="italic"><tspan x="0" y="0">JERZYS</tspan></text>
      <text id="SANDBOX" transform="translate(122 99)" fill="#fff" font-size="14" font-family="Poppins-BoldItalic, Poppins" font-weight="700" font-style="italic"><tspan x="0" y="0">SANDBOX</tspan></text>
    </g>
  </g>
</svg>
