<svg xmlns="http://www.w3.org/2000/svg" width="564.446" height="248.685" viewBox="0 0 564.446 248.685">
  <g id="Gruppe_25" data-name="Gruppe 25" transform="translate(-665.663 -507.688)">
    <path id="logo" d="M26.244-180.762a57.981,57.981,0,0,0,4.409,23.15,49.7,49.7,0,0,0,12.441,17.48,54.2,54.2,0,0,0,19.213,11.024,76.837,76.837,0,0,0,24.725,3.78,76.838,76.838,0,0,0,24.725-3.78,54.2,54.2,0,0,0,19.213-11.024,49.7,49.7,0,0,0,12.441-17.48,57.982,57.982,0,0,0,4.409-23.15,52.4,52.4,0,0,0-8.032-28.5,58.661,58.661,0,0,0-21.732-20.315q-13.7-7.559-31.024-7.559t-31.024,7.559a58.661,58.661,0,0,0-21.732,20.315A52.4,52.4,0,0,0,26.244-180.762Zm25.512,3.15a37.5,37.5,0,0,1,4.567-18.583,32.7,32.7,0,0,1,12.6-12.756,35.985,35.985,0,0,1,18.11-4.567,35.751,35.751,0,0,1,18.268,4.567,33.031,33.031,0,0,1,12.441,12.756,37.5,37.5,0,0,1,4.567,18.583,33.95,33.95,0,0,1-4.882,18.268,34.513,34.513,0,0,1-12.913,12.284,35.733,35.733,0,0,1-17.48,4.409,35.733,35.733,0,0,1-17.48-4.409,34.513,34.513,0,0,1-12.913-12.284A33.95,33.95,0,0,1,51.756-177.612ZM18.37-73.36a57.511,57.511,0,0,0,5.2,24.252A64.849,64.849,0,0,0,38.055-28.95a66.486,66.486,0,0,0,21.732,13.7,73.953,73.953,0,0,0,27.244,4.882,73.953,73.953,0,0,0,27.244-4.882,66.486,66.486,0,0,0,21.732-13.7A64.849,64.849,0,0,0,150.5-49.108a57.511,57.511,0,0,0,5.2-24.252,62.975,62.975,0,0,0-5.512-26.929,56.775,56.775,0,0,0-15.118-19.843,66.328,66.328,0,0,0-22.047-12.126,82.58,82.58,0,0,0-25.984-4.095,82.58,82.58,0,0,0-25.984,4.095A66.328,66.328,0,0,0,39-120.132a56.775,56.775,0,0,0-15.118,19.843A62.975,62.975,0,0,0,18.37-73.36Zm25.512-3.15a39.2,39.2,0,0,1,6.142-21.575A45.7,45.7,0,0,1,66.087-113.36a41.584,41.584,0,0,1,20.945-5.669,41.584,41.584,0,0,1,20.945,5.669A45.7,45.7,0,0,1,124.04-98.084a39.2,39.2,0,0,1,6.142,21.575q0,13.543-6.142,22.992a41.024,41.024,0,0,1-16.063,14.488,45.636,45.636,0,0,1-20.945,5.039,45.636,45.636,0,0,1-20.945-5.039A41.024,41.024,0,0,1,50.024-53.517Q43.882-62.966,43.882-76.509Z" transform="translate(824.133 489.818) rotate(90)" fill="#5f7fc8" stroke="#5f7fc8" stroke-width="1"/>
    <path id="Pfad_13" data-name="Pfad 13" d="M10.133-31.808v8.447H23.579v5.4H10.133V-2.869H3.186V-37.856H25.378v6.048ZM40.123-15.564h-4.6v12.7h-6.9V-37.856H41.572a14.223,14.223,0,0,1,7.047,1.6,10.277,10.277,0,0,1,4.2,4.149,11.675,11.675,0,0,1,1.35,5.548,11.188,11.188,0,0,1-1.8,6.223,9.9,9.9,0,0,1-5.448,3.974l7.9,13.5H47.57Zm-4.6-5.648h5a9.344,9.344,0,0,0,4.923-1.225A4.433,4.433,0,0,0,47.47-26.56a4.331,4.331,0,0,0-2-4.074,9.627,9.627,0,0,0-4.948-1.175h-5ZM68.912-2.869V-15.014l-11.5-22.842h7.247l7.547,15.794h.3l7.447-15.794h7.3L75.76-15.014V-2.869ZM90.554-37.906h13.6a15.943,15.943,0,0,1,8.2,2.074,14.055,14.055,0,0,1,5.523,6.023,20.794,20.794,0,0,1,1.974,9.4,20.575,20.575,0,0,1-2,9.4,14.161,14.161,0,0,1-5.573,6.023,16.078,16.078,0,0,1-8.222,2.074h-13.5ZM102.8-9.117a9.422,9.422,0,0,0,7.047-2.649q2.6-2.649,2.6-8.7t-2.6-8.672a9.472,9.472,0,0,0-7.047-2.624H97.3V-9.117Zm28.69-22.692v8.447h13.745v5.448H131.49v9h16.194v6.048H124.542V-37.856h23.142v6.048Zm32.838,16.244h-4.6v12.7h-6.9V-37.856h12.945a14.223,14.223,0,0,1,7.047,1.6,10.277,10.277,0,0,1,4.2,4.149,11.675,11.675,0,0,1,1.35,5.548,11.188,11.188,0,0,1-1.8,6.223,9.9,9.9,0,0,1-5.448,3.974l7.9,13.5h-7.247Zm-4.6-5.648h5a9.344,9.344,0,0,0,4.923-1.225,4.433,4.433,0,0,0,2.024-4.124,4.331,4.331,0,0,0-2-4.074,9.627,9.627,0,0,0-4.948-1.175h-5ZM193.117-2.869V-15.014l-11.5-22.842h7.247l7.547,15.794h.3l7.447-15.794h7.3l-11.5,22.842V-2.869ZM214.76-37.856h6.848v14.195h.25l12.2-14.195h8l-12.9,14.895L242.3-2.869h-7.8l-9.647-15.344-3.249,3.6V-2.869H214.76ZM271.539-2.419a14.692,14.692,0,0,1-7.222-1.674,11.71,11.71,0,0,1-4.573-4.323,10.918,10.918,0,0,1-1.549-5.6v-.3h7.6v.3a5.7,5.7,0,0,0,.625,2.524,5.274,5.274,0,0,0,1.949,2.124,5.944,5.944,0,0,0,3.274.85,6.067,6.067,0,0,0,3.974-1.25,4.108,4.108,0,0,0,1.524-3.349,3.568,3.568,0,0,0-1.275-2.874,6.67,6.67,0,0,0-3.124-1.424l-4.248-.9a16.324,16.324,0,0,1-6.348-2.824q-3.049-2.174-3.049-7.122a9.724,9.724,0,0,1,1.549-5.523,9.837,9.837,0,0,1,4.3-3.549,15.2,15.2,0,0,1,6.248-1.225,14.29,14.29,0,0,1,6.872,1.549,11.029,11.029,0,0,1,4.348,4,9.916,9.916,0,0,1,1.474,5.2v.2h-7.6v-.15a5.267,5.267,0,0,0-1.275-3.374,4.937,4.937,0,0,0-4.074-1.574,5.039,5.039,0,0,0-3.6,1.225,4.1,4.1,0,0,0-1.3,3.124,3.442,3.442,0,0,0,1.324,2.849,7.659,7.659,0,0,0,3.274,1.449l4.2.9a15.977,15.977,0,0,1,6.7,3.149,8.159,8.159,0,0,1,2.849,6.748,9.99,9.99,0,0,1-1.649,5.673,10.78,10.78,0,0,1-4.573,3.824A15.628,15.628,0,0,1,271.539-2.419Zm16.994-6.748,17.894-22.342v-.1H288.533v-6.248h26.141v6.248L296.68-9.267v.1h17.993v6.3H288.533Zm51.881-2.3h-12l-2.8,8.6h-7l12.6-34.987h6.5L350.261-2.869h-7Zm-1.749-5.348-4.148-12.446h-.3l-4.049,12.446Zm22.442-14.995v8.447h13.445v5.4H361.107V-2.869h-6.947V-37.856h22.192v6.048Zm37.237,20.343h-12l-2.8,8.6h-7l12.6-34.987h6.5L408.19-2.869h-7Zm-1.749-5.348-4.148-12.446h-.3L388.1-16.814Zm26.89,1.25h-4.6v12.7h-6.9V-37.856h12.945a14.223,14.223,0,0,1,7.047,1.6,10.277,10.277,0,0,1,4.2,4.149,11.675,11.675,0,0,1,1.349,5.548,11.188,11.188,0,0,1-1.8,6.223,9.9,9.9,0,0,1-5.448,3.974l7.9,13.5h-7.247Zm-4.6-5.648h5a9.344,9.344,0,0,0,4.923-1.225,4.433,4.433,0,0,0,2.024-4.124,4.331,4.331,0,0,0-2-4.074,9.627,9.627,0,0,0-4.948-1.175h-5ZM457.572-2.469a14.91,14.91,0,0,1-8.6-2.449,15.56,15.56,0,0,1-5.473-6.573,21.543,21.543,0,0,1-1.874-9.022,21.5,21.5,0,0,1,1.874-9.047,15.59,15.59,0,0,1,5.473-6.548,14.91,14.91,0,0,1,8.6-2.449,14.4,14.4,0,0,1,10,3.5,16.548,16.548,0,0,1,5.1,9.2h-6.7a8.766,8.766,0,0,0-2.924-4.773,8.061,8.061,0,0,0-5.373-1.874,7.476,7.476,0,0,0-6.6,3.3,15.169,15.169,0,0,0-2.249,8.7,15.169,15.169,0,0,0,2.249,8.7,7.476,7.476,0,0,0,6.6,3.3,7.776,7.776,0,0,0,5.2-1.774,9.124,9.124,0,0,0,2.9-4.423h6.7a16.153,16.153,0,0,1-5.048,8.822A14.26,14.26,0,0,1,457.572-2.469Zm19.193-6.7,17.894-22.342v-.1H476.765v-6.248h26.141v6.248L484.912-9.267v.1h17.994v6.3H476.765Zm41.685,6.3V-15.014l-11.5-22.842H514.2l7.547,15.794h.3L529.5-37.856h7.3L525.3-15.014V-2.869Zm21.642-34.987h6.847v14.195h.25l12.2-14.195h8l-12.9,14.895L567.632-2.869h-7.8l-9.646-15.344-3.249,3.6V-2.869h-6.847Z" transform="translate(662.477 719)" fill="#38496d"/>
    <path id="Pfad_14" data-name="Pfad 14" d="M.264-17.246H3.352L6.04-5.717h.133L9.727-17.246h2.688L15.969-5.717H16.1l2.71-11.529H21.9l-4,15.572h-3.71L11.149-11.737h-.133L7.972-1.674H4.263Zm26.7,2.688V-10.8h6.109v2.421H26.965v4h7.2V-1.7H23.878v-15.55H34.163v2.688Zm9.485-2.688h6.575a5.051,5.051,0,0,1,2.444.544,3.521,3.521,0,0,1,1.477,1.444,4.128,4.128,0,0,1,.478,1.966,3.255,3.255,0,0,1-.711,2.188,3.224,3.224,0,0,1-1.622,1.077v.133a3.854,3.854,0,0,1,1.388.5,3.714,3.714,0,0,1,1.255,1.222,3.541,3.541,0,0,1,.533,1.988,4.866,4.866,0,0,1-.5,2.144,4.077,4.077,0,0,1-1.577,1.7,5.047,5.047,0,0,1-2.7.666H36.451Zm5.642,6.464a2.958,2.958,0,0,0,1.7-.489,1.743,1.743,0,0,0,.722-1.555,1.673,1.673,0,0,0-.711-1.511,3.048,3.048,0,0,0-1.71-.467H39.472v4.021Zm.689,6.642a3.2,3.2,0,0,0,1.8-.511,1.892,1.892,0,0,0,.777-1.71,1.9,1.9,0,0,0-.777-1.7,3.152,3.152,0,0,0-1.8-.522h-3.31V-4.14Zm8.841-5.709h8.019v2.444H51.623Zm11.862-7.42h6.042a7.086,7.086,0,0,1,3.643.922,6.247,6.247,0,0,1,2.455,2.677A9.242,9.242,0,0,1,76.5-9.494a9.145,9.145,0,0,1-.889,4.176,6.294,6.294,0,0,1-2.477,2.677,7.146,7.146,0,0,1-3.654.922h-6Zm5.442,12.8A4.187,4.187,0,0,0,72.06-5.651a5.385,5.385,0,0,0,1.155-3.865A5.342,5.342,0,0,0,72.06-13.37a4.21,4.21,0,0,0-3.132-1.166H66.485V-4.473ZM81.679-14.559V-10.8h6.109v2.421H81.679v4h7.2V-1.7H78.591v-15.55H88.876v2.688Zm8.464-2.688h3.066L97.14-4.962h.133l3.91-12.284h3.088L99.184-1.674H95.207Zm19.171,2.688V-10.8h6.109v2.421h-6.109v4h7.2V-1.7H106.226v-15.55h10.285v2.688ZM128.64-4.384V-1.7h-9.819l-.022-15.55h3.11l-.022,12.862Zm7.819,2.866a6.957,6.957,0,0,1-3.9-1.055,6.544,6.544,0,0,1-2.421-2.866,9.756,9.756,0,0,1-.811-4.032,9.851,9.851,0,0,1,.822-4.076,6.811,6.811,0,0,1,2.432-2.921,6.758,6.758,0,0,1,3.876-1.089,6.756,6.756,0,0,1,3.865,1.077,6.765,6.765,0,0,1,2.421,2.91,9.907,9.907,0,0,1,.822,4.1,9.7,9.7,0,0,1-.822,4.054,6.546,6.546,0,0,1-2.432,2.855A6.93,6.93,0,0,1,136.459-1.519Zm0-2.755a3.212,3.212,0,0,0,2.821-1.477,6.581,6.581,0,0,0,1-3.765,7.8,7.8,0,0,0-.433-2.666,4.291,4.291,0,0,0-1.3-1.91,3.186,3.186,0,0,0-2.088-.711,3.2,3.2,0,0,0-2.1.722,4.408,4.408,0,0,0-1.322,1.922,7.626,7.626,0,0,0-.444,2.666A6.5,6.5,0,0,0,133.6-5.762,3.252,3.252,0,0,0,136.459-4.273Zm15.106-12.973a6.02,6.02,0,0,1,3.132.755,4.69,4.69,0,0,1,1.866,1.977,5.869,5.869,0,0,1,.6,2.621,5.75,5.75,0,0,1-.589,2.588,4.535,4.535,0,0,1-1.855,1.922,6.214,6.214,0,0,1-3.154.733h-2.732V-1.7h-3.021v-15.55ZM151.1-9.183a3.741,3.741,0,0,0,2.2-.622,2.369,2.369,0,0,0,.889-2.088,2.291,2.291,0,0,0-.877-2.055,3.884,3.884,0,0,0-2.21-.589h-2.266v5.354Zm11.107-5.376V-10.8h6.109v2.421h-6.109v4h7.2V-1.7H159.118v-15.55H169.4v2.688ZM176.8-7.339h-2.044V-1.7h-3.066v-15.55h5.753a6.321,6.321,0,0,1,3.132.711,4.568,4.568,0,0,1,1.866,1.844,5.189,5.189,0,0,1,.6,2.466,4.973,4.973,0,0,1-.8,2.766,4.4,4.4,0,0,1-2.421,1.766l3.51,6H180.11Zm-2.044-2.51h2.221a4.153,4.153,0,0,0,2.188-.544,1.97,1.97,0,0,0,.9-1.833,1.925,1.925,0,0,0-.889-1.81,4.278,4.278,0,0,0-2.2-.522h-2.221ZM191.173-22.8h2.51V3.924h-2.51ZM208.544-1.474A6.344,6.344,0,0,1,203.9-3.2q-1.755-1.722-1.755-5.32v-8.73h3.066v8.552a5.972,5.972,0,0,0,.722,3.043,2.758,2.758,0,0,0,2.61,1.244,2.748,2.748,0,0,0,2.577-1.233,5.886,5.886,0,0,0,.733-3.054v-8.552H214.9v8.73q0,3.576-1.755,5.309A6.262,6.262,0,0,1,208.544-1.474Zm13.24-8-5.043-7.775H220.1l3.488,5.62h.133l3.488-5.62h3.377l-5.087,7.775L230.6-1.7h-3.4l-3.488-5.62h-.133L220.1-1.7h-3.377Zm17.749-9.73h2.888L234.69,2.591H231.8ZM250.64-1.474A6.344,6.344,0,0,1,246-3.2q-1.755-1.722-1.755-5.32v-8.73h3.066v8.552a5.973,5.973,0,0,0,.722,3.043,2.758,2.758,0,0,0,2.61,1.244,2.748,2.748,0,0,0,2.577-1.233,5.886,5.886,0,0,0,.733-3.054v-8.552h3.043v8.73q0,3.576-1.755,5.309A6.262,6.262,0,0,1,250.64-1.474Zm9.108-15.772h3.11V-1.7h-3.11Zm10.907-.022H276.7a7.086,7.086,0,0,1,3.643.922A6.246,6.246,0,0,1,282.8-13.67a9.242,9.242,0,0,1,.877,4.176,9.145,9.145,0,0,1-.889,4.176,6.294,6.294,0,0,1-2.477,2.677,7.146,7.146,0,0,1-3.654.922h-6Zm5.442,12.8a4.187,4.187,0,0,0,3.132-1.177,5.385,5.385,0,0,0,1.155-3.865,5.342,5.342,0,0,0-1.155-3.854,4.21,4.21,0,0,0-3.132-1.166h-2.444V-4.473Zm12.751-10.085V-10.8h6.109v2.421h-6.109v4h7.2V-1.7H285.761v-15.55h10.285v2.688ZM303.954-1.5a6.529,6.529,0,0,1-3.21-.744,5.2,5.2,0,0,1-2.033-1.922,4.852,4.852,0,0,1-.689-2.488v-.133H301.4v.133a2.533,2.533,0,0,0,.278,1.122,2.344,2.344,0,0,0,.866.944A2.642,2.642,0,0,0,304-4.207a2.7,2.7,0,0,0,1.766-.555,1.826,1.826,0,0,0,.678-1.488,1.586,1.586,0,0,0-.566-1.277,2.964,2.964,0,0,0-1.388-.633l-1.888-.4a7.255,7.255,0,0,1-2.821-1.255,3.618,3.618,0,0,1-1.355-3.166,4.322,4.322,0,0,1,.689-2.455,4.372,4.372,0,0,1,1.91-1.577,6.758,6.758,0,0,1,2.777-.544,6.351,6.351,0,0,1,3.054.689,4.9,4.9,0,0,1,1.933,1.777,4.407,4.407,0,0,1,.655,2.31v.089h-3.377v-.067a2.341,2.341,0,0,0-.566-1.5,2.194,2.194,0,0,0-1.81-.7,2.239,2.239,0,0,0-1.6.544,1.824,1.824,0,0,0-.578,1.388,1.53,1.53,0,0,0,.589,1.266,3.4,3.4,0,0,0,1.455.644l1.866.4a7.1,7.1,0,0,1,2.977,1.4,3.626,3.626,0,0,1,1.266,3A4.44,4.44,0,0,1,308.93-3.8,4.791,4.791,0,0,1,306.9-2.1,6.946,6.946,0,0,1,303.954-1.5Zm8.108-15.75h3.11V-1.7h-3.11ZM324.3-1.519a6.055,6.055,0,0,1-3.721-1.133,6.819,6.819,0,0,1-2.266-2.954,10.121,10.121,0,0,1-.744-3.865,10.072,10.072,0,0,1,.778-3.954,6.92,6.92,0,0,1,2.366-2.988,6.494,6.494,0,0,1,3.9-1.144,6.326,6.326,0,0,1,4.321,1.466,7.735,7.735,0,0,1,2.344,3.776h-3.243a3.6,3.6,0,0,0-1.2-1.866,3.444,3.444,0,0,0-2.2-.666A3.349,3.349,0,0,0,321.7-13.37,6.856,6.856,0,0,0,320.682-9.4a6.5,6.5,0,0,0,1.077,4,3.561,3.561,0,0,0,3.01,1.422,3.281,3.281,0,0,0,2.6-1.033,3.832,3.832,0,0,0,.955-2.5v-.355h-3.265v-2.221h6.264v8.4h-2.288v-2.31h-.178a11.587,11.587,0,0,1-.7,1.022,4.107,4.107,0,0,1-1.333.955A5.474,5.474,0,0,1,324.3-1.519Zm9.752-15.728h3.576l6.353,10.8h.044v-10.8h3.066V-1.674h-3.6l-6.309-10.485h-.067V-1.674h-3.066Zm18.86,2.688V-10.8h6.109v2.421h-6.109v4h7.2V-1.7H349.827v-15.55h10.285v2.688Zm14.595,7.22h-2.044V-1.7H362.4v-15.55h5.754a6.321,6.321,0,0,1,3.132.711,4.567,4.567,0,0,1,1.866,1.844,5.189,5.189,0,0,1,.6,2.466,4.973,4.973,0,0,1-.8,2.766,4.4,4.4,0,0,1-2.421,1.766l3.51,6h-3.221Zm-2.044-2.51h2.221a4.153,4.153,0,0,0,2.188-.544,1.97,1.97,0,0,0,.9-1.833,1.925,1.925,0,0,0-.889-1.81,4.278,4.278,0,0,0-2.2-.522h-2.221Z" transform="translate(760.054 752.449)" fill="#38496d"/>
  </g>
</svg>
