<?xml version="1.0" standalone="no"?>
<!DOCTYPE svg PUBLIC "-//W3C//DTD SVG 20010904//EN"
 "http://www.w3.org/TR/2001/REC-SVG-20010904/DTD/svg10.dtd">
<svg version="1.0" xmlns="http://www.w3.org/2000/svg"
 width="976.000000pt" height="976.000000pt" viewBox="0 0 976.000000 976.000000"
 preserveAspectRatio="xMidYMid meet">
<metadata>
Created by potrace 1.14, written by Peter Selinger 2001-2017
</metadata>
<g transform="translate(0.000000,976.000000) scale(0.100000,-0.100000)"
fill="#000000" stroke="none">
<path d="M2445 7819 c-33 -5 -78 -11 -100 -14 -45 -5 -128 -21 -212 -40 -13
-3 -32 -7 -43 -9 -11 -3 -60 -17 -108 -32 -48 -14 -88 -26 -89 -25 -2 0 -39
-15 -82 -33 -44 -19 -82 -31 -85 -28 -4 3 -6 0 -6 -6 0 -7 -8 -12 -18 -12 -10
0 -23 -5 -30 -12 -7 -7 -12 -8 -12 -2 0 5 -3 5 -8 -1 -4 -5 -45 -29 -92 -52
-47 -24 -114 -61 -150 -83 -36 -21 -81 -48 -100 -59 -19 -10 -48 -31 -65 -45
-16 -14 -33 -26 -37 -26 -4 0 -13 -6 -20 -12 -7 -7 -31 -26 -53 -43 -22 -16
-49 -36 -59 -45 -118 -93 -323 -301 -425 -430 -45 -58 -88 -112 -94 -120 -24
-30 -127 -190 -127 -197 0 -3 -6 -14 -14 -22 -17 -19 -119 -217 -159 -311 -16
-36 -33 -74 -38 -85 -12 -28 -60 -166 -66 -190 -3 -11 -7 -27 -10 -35 -8 -20
-8 -19 -41 -145 -35 -131 -49 -201 -71 -350 -21 -143 -26 -236 -26 -480 1
-253 10 -410 30 -512 6 -29 14 -69 20 -108 3 -16 7 -41 10 -55 3 -14 7 -36 10
-50 2 -14 20 -81 40 -150 19 -69 37 -132 39 -140 2 -8 18 -53 36 -100 17 -47
32 -89 34 -95 14 -45 120 -263 176 -360 44 -76 156 -247 185 -283 8 -10 44
-55 81 -102 91 -114 297 -318 415 -413 204 -161 426 -295 649 -390 91 -38 273
-102 320 -112 8 -2 38 -9 65 -15 28 -6 61 -14 75 -16 14 -3 31 -7 38 -9 8 -3
37 -8 65 -11 29 -4 54 -8 58 -10 19 -11 186 -19 384 -19 224 1 312 6 425 25
30 5 69 11 85 14 17 2 54 10 83 16 30 7 61 13 70 15 9 2 18 4 20 5 1 2 5 3 10
4 57 13 119 30 127 35 6 3 15 6 21 7 15 2 133 42 159 54 11 5 49 21 85 36 94
38 262 128 360 192 187 122 329 244 495 424 84 91 245 307 245 328 0 4 4 10 8
12 11 4 68 101 127 213 26 50 52 96 57 103 6 6 7 12 3 12 -4 0 0 11 9 25 9 13
16 31 16 40 0 8 4 15 10 15 5 0 9 3 8 8 -1 4 4 20 10 35 7 16 12 33 12 38 0
26 20 0 55 -73 22 -46 61 -118 87 -161 26 -43 48 -83 48 -88 0 -5 4 -9 8 -9 4
0 15 -13 25 -29 75 -127 275 -347 427 -468 78 -62 200 -146 266 -184 45 -25
196 -103 204 -105 3 0 19 -6 35 -13 191 -79 335 -120 536 -155 181 -32 216
-34 434 -35 192 0 284 5 390 23 17 3 50 8 75 11 24 4 48 9 53 12 4 3 23 7 40
9 30 4 103 25 227 64 101 32 304 125 405 186 22 13 47 27 55 31 8 4 20 11 25
15 6 4 48 35 95 68 98 68 131 93 172 132 17 15 33 28 36 28 13 0 252 252 313
330 61 79 158 218 186 267 72 127 113 206 113 217 0 8 4 16 8 18 19 7 150 359
167 447 2 9 4 17 5 19 3 2 3 2 15 57 4 22 9 45 11 50 11 42 31 148 38 205 18
136 21 197 21 420 -1 230 -7 386 -19 420 -3 8 -7 33 -10 55 -3 22 -7 49 -9 60
-3 11 -8 38 -12 60 -5 22 -10 47 -12 55 -2 8 -5 22 -7 30 -1 8 -8 35 -15 60
-7 25 -14 52 -16 60 -6 33 -78 238 -101 288 -13 29 -24 55 -24 57 0 9 -96 198
-124 245 -15 25 -29 53 -33 63 -3 9 -9 17 -14 17 -5 0 -9 7 -9 15 0 8 -4 15
-10 15 -5 0 -10 6 -10 13 0 8 -9 22 -20 32 -11 10 -20 23 -20 30 0 6 -8 20
-17 31 -10 10 -31 37 -48 59 -16 22 -33 45 -37 50 -87 112 -284 308 -403 400
-49 38 -96 75 -103 82 -7 7 -17 13 -22 13 -5 0 -15 6 -22 13 -37 37 -249 154
-403 222 -134 59 -356 124 -485 141 -25 3 -47 7 -50 9 -20 12 -172 20 -380 20
-249 0 -299 -3 -450 -31 -47 -9 -96 -18 -110 -20 -14 -3 -59 -14 -100 -25 -41
-11 -82 -22 -90 -24 -8 -2 -15 -4 -15 -5 0 -1 -7 -3 -15 -5 -89 -19 -359 -140
-471 -211 -24 -15 -46 -28 -49 -28 -3 0 -12 -6 -20 -13 -8 -7 -43 -32 -76 -55
-274 -191 -540 -509 -689 -825 -22 -46 -42 -83 -46 -83 -4 0 -10 12 -14 28 -9
38 -135 296 -146 300 -5 2 -9 10 -9 17 0 14 -94 169 -158 259 -180 254 -404
473 -656 641 -129 85 -390 222 -458 241 -5 1 -10 3 -13 4 -3 1 -8 3 -12 5 -5
1 -15 5 -23 8 -38 16 -304 97 -317 97 -2 0 -4 0 -5 1 -2 0 -12 2 -23 4 -11 2
-45 9 -75 15 -30 6 -66 12 -80 15 -14 2 -25 4 -25 5 0 1 -18 3 -40 6 -22 2
-58 7 -80 10 -70 9 -548 12 -610 3z m550 -1094 c114 -9 147 -13 215 -29 14 -3
36 -8 50 -10 80 -15 252 -77 345 -124 28 -14 53 -25 58 -24 4 1 7 -3 7 -10 0
-6 3 -8 7 -5 3 4 13 1 22 -6 9 -8 40 -28 69 -46 30 -18 59 -36 65 -42 7 -5 41
-31 77 -57 174 -125 356 -326 485 -533 53 -85 152 -282 160 -317 2 -9 14 -42
25 -72 12 -30 23 -62 24 -70 2 -8 8 -33 14 -55 6 -22 13 -52 16 -68 3 -15 7
-35 10 -45 33 -103 39 -466 11 -612 -3 -14 -10 -51 -15 -83 -14 -74 -73 -267
-100 -323 -11 -24 -21 -49 -22 -56 -2 -7 -5 -15 -8 -18 -3 -3 -25 -43 -49 -90
-147 -288 -415 -581 -674 -739 -21 -13 -44 -30 -52 -38 -8 -8 -15 -12 -15 -9
0 3 -33 -12 -74 -34 -124 -66 -315 -135 -431 -155 -16 -3 -41 -8 -55 -10 -63
-13 -79 -15 -159 -21 -113 -8 -291 -8 -366 0 -104 12 -128 16 -220 36 -49 11
-103 23 -120 26 -16 3 -34 9 -40 13 -5 4 -30 14 -55 21 -25 7 -49 17 -55 21
-5 3 -21 10 -35 14 -14 4 -65 28 -115 52 -168 85 -302 184 -443 328 -91 93
-209 238 -210 259 0 5 -4 12 -9 15 -22 16 -106 174 -173 326 -15 33 -69 194
-74 218 -2 12 -9 42 -15 67 -14 54 -18 74 -25 120 -3 19 -8 46 -11 60 -17 83
-22 262 -11 420 11 153 12 161 47 310 61 263 210 576 359 754 131 156 265 278
409 371 63 41 260 145 275 145 2 0 17 5 33 12 15 6 30 12 33 13 25 8 40 14 70
24 19 7 40 14 45 15 35 10 63 16 85 20 14 2 46 9 73 15 57 13 100 19 192 27
39 3 71 6 72 7 3 4 210 -2 278 -8z m4379 -339 c49 -4 92 -8 96 -11 4 -2 22 -6
41 -9 48 -6 82 -14 179 -44 47 -14 90 -26 95 -28 6 -1 36 -13 67 -28 31 -14
59 -26 62 -26 13 0 202 -115 258 -157 101 -75 242 -225 312 -331 37 -55 66
-104 66 -110 0 -7 5 -12 10 -12 6 0 10 -4 10 -9 0 -4 14 -39 32 -77 17 -38 33
-73 34 -79 2 -5 15 -44 29 -85 15 -41 29 -84 31 -95 4 -21 11 -52 19 -95 3
-14 7 -36 10 -50 8 -39 18 -187 18 -275 0 -80 -17 -300 -23 -300 -2 0 -4 -12
-13 -55 -3 -14 -8 -32 -11 -40 -3 -8 -7 -26 -10 -40 -14 -84 -120 -318 -189
-420 -35 -52 -101 -135 -131 -166 -12 -12 -30 -32 -42 -45 -11 -13 -40 -40
-63 -59 -23 -19 -52 -44 -64 -55 -28 -25 -162 -115 -173 -115 -4 0 -15 -6 -23
-13 -21 -18 -212 -102 -276 -122 -54 -16 -164 -44 -205 -51 -14 -2 -34 -6 -45
-9 -43 -9 -185 -18 -285 -17 -193 1 -331 22 -500 79 -86 29 -231 99 -298 144
-24 16 -47 29 -52 29 -4 0 -10 3 -12 8 -1 4 -28 26 -58 49 -71 55 -153 133
-211 203 -64 75 -159 212 -159 227 0 7 -4 13 -10 13 -5 0 -10 4 -10 9 0 4 -19
48 -42 97 -23 49 -43 91 -43 94 -1 3 -13 41 -27 85 -27 83 -52 192 -64 280
-14 108 -8 391 12 475 3 14 7 38 10 53 4 23 17 73 37 142 12 39 19 63 27 80 5
11 21 49 36 85 28 65 119 230 132 240 4 3 19 23 34 46 56 87 191 223 303 305
44 33 85 63 90 67 11 9 31 19 143 77 40 20 78 38 85 39 7 2 26 9 42 15 187 78
430 107 719 87z"/>
</g>
</svg>
